<?xml version="1.0" encoding="utf-8"?>
<!-- Generator: Adobe Illustrator 27.6.1, SVG Export Plug-In . SVG Version: 6.00 Build 0)  -->
<svg version="1.1" id="Layer_1" xmlns="http://www.w3.org/2000/svg" xmlns:xlink="http://www.w3.org/1999/xlink" x="0px" y="0px"
	 viewBox="0 0 155.91 155.91" style="enable-background:new 0 0 155.91 155.91;" xml:space="preserve">
<style type="text/css">
	.st0{fill-rule:evenodd;clip-rule:evenodd;fill:#008066;}
	.st1{fill-rule:evenodd;clip-rule:evenodd;fill:#FFFFFF;}
	.st2{fill:#008066;}
	.st3{fill:#FFFFFF;}
</style>
<g>
	<path class="st0" d="M6.2,7.09c1.41,0.36,1.58,2.1,2.92,2.26c1.84-0.1,3.84-1.37,5.68-1.21c1.48,0,6.01,2.6,7.78,2.4
		c1.6-0.18,4.5,0.73,6.13,1.82c1.09,0.73,8.99,5.02,13.57,4.42c0.86,0.1,1.79-0.73,2.66-0.85c1.01-0.12,2.19-0.12,3.09,0.4
		c1.89,1.03,3.16,2.48,5.46,2.26c2.77-0.26,4.72-1.11,7.01-2.4c0.86-0.46,1.42-1.09,2.53-1.35c2-0.52,1.01-1.55,2.58-2.6
		c2.87-1.9,5.33,4.54,6.59,6.05c1.36,1.65,0.48,3.27,0.75,5.27c0.02,0.14,0.95,2.56,2.52,3.29c4,1.86,4.22,7.23,3.44,11.36
		c-0.51,2.77-2.01,3.93-3.12,6.36c-0.67,1.43-1.08,3.35-1.11,4.86c-0.1,4.58,0.03,8.46,1.26,12.59c0.72,2.36,1.74,3.78,4.19,4.56
		c1.76,0.59,4.82,3.05,6.62,6.15c0.95,1.62,1.53,2.54,2.29,4.12c0.8,1.78,1.69,5.17,3.4,5.93c2.94,1.35,6.34-3.49,7.49-1.09
		c0.64,1.33-2.74,2.84-3.39,4.8c-0.95,2.8,1.62,7.24,3.47,9.2c3.07,3.21,2.98,3.06,3.16,6.94c0.08,1.73-3.08,5.17-1.52,7.36
		c0.84,1.17,1.52,2.77,1.52,4.32c0,2.87-0.75,4.24-2.29,6.38c-1.5,2.1-3.65,6.38-5.18,4.14c-2.42-3.55-7.25,4.86-8.32,6.46
		c-1.26,1.88-2.29,2.66-4.33,2.66c-5.28,0-10.57,0-15.86,0c-11.52,0-23.06,0-34.59,0c-8.07,0-16.08-0.04-24.1,0.06
		c-1.43,0.02-3.08,0.65-3.16-1.27c-0.09-2.08,0.01-4.17,0-6.26c-0.02-3.07-0.01-6.15-0.04-9.22C5.1,100.51,5.18,83.76,5.07,66.97
		c-0.03-3.45,0.01-6.96-0.09-10.45C4.78,49.4,6,41.45,4.2,34.57c-0.63-2.36-2.21-4.4-2.18-6.9c0.03-3.27,3.33-5.47,3.25-8.64
		C5.13,13.6,0.77,11.58,6.2,7.09z"/>
	<path class="st0" d="M78.5,19.92c1.84,2.8-0.18,2.62-0.7,4.9c-0.56,2.6-3.34-0.81-2.95-2.71c0.75-3.55-1.04-4.76-2.85-7.71
		c-0.94-1.51-4.19-5.13-0.08-5.27c0.7,1.25,0.31,1.86,1.67,2.58c0.54,0.26,2.7,1.03,2.69-0.08c0-0.46-1.17-0.81-1.28-1.74
		c-0.2-1.79,0.84-2.24,2.53-1.73c2.23,0.66,7.33,1.94,5.5,5.01C81.67,15.66,78.42,16.43,78.5,19.92z"/>
	<path class="st0" d="M85.96,11.93c1.06,1.43,1.44,1.72,3.02,2.58c1.43,0.81,0.63,1.21,0.95,2.58c0.25,1.07,1.68,0.4,1.7,1.88
		c0.03,1.39,0,2.78-0.01,4.2c-0.02,2.12,0.41,2.94,2.11,4.58c1.14,1.98,1.97,2.62,2.32,4.74c0.27,1.7-0.11,3.57,0.22,5.17
		c-0.07,1.9,2.19,3.39,2.75,5.04c0.87,2.58,0.19,3.53,1.96,5.99c1.51,2.1,2.5,3.93,4.97,5.19c2.55,1.27,3.89,2.87,3.85,5.73
		c-0.05,3.79,2.11,4.52,4.1,7.48c1.61,2.44,1.9,5.35,3.92,7.41c1.42,1.45,2.16,3.67,3.06,5.49c1.33,2.71,2.75,5.13,4.68,7.47
		c1.98,2.38,1.62,5.24,3.36,7.75c1.7,2.42,3.31,4.7,4.94,7.16c1.1,1.63,1.95,3.83,3.88,4.52c1.2,0.42,1.92,1.35,2.84,1.96
		c1.86,1.19-3.08,1.13-3.39,1.17c0.37-0.04,1.44,7.12,1.49,7.81c0.18,2.89,1.87,5.41,4.27,7.07c0.79,0.56,1.65,1.41,2.68,1.31
		c1.44-0.16,1.86-0.71,2.91,0.56c0.35,0.43,5.06,7.1,5.34,6.66c-0.74,1.25-12.59,0.44-14.39,0.36c-4.69-0.18-9.34-0.14-14.04-0.2
		c-5.34-0.06-10.69,0.08-16.03,0.08c-3.58,0-7.15,0-10.73,0c-2.55,0-6.83,0.5-9.43-0.63c2.04-0.91,1.53-3.09,3.73-5.12
		c0.81-0.69,1.44-1.48,2.48-0.35c0.9,0.97,3.2,0.43,4.09-0.48c2.2-2.2,5.08-6.68,6.38-9.34c2.05-4.26-3.23-7.71-1.82-9.77
		c1.82-2.62,2.04-9.18-0.31-11.78c-2.11-2.36-4.89-5.57-4.53-9.04c0.25-2.5,1.88-2.58,2.98-4.66c1.01-1.9-0.1-3.61-2.3-4.08
		c-2.78-0.61-5.91,3.29-7,0.83c-1.02-2.32-2.36-5.09-3.34-6.5c-0.38-0.54-2.04-2.66-4.2-5.51c-0.84-1.09-3.03-2.85-4.17-2.99
		c-1.22-0.16-2.01-1.15-2.56-2.94c-0.95-3.13-1.62-7.25-1.25-10.35c0.17-2.85,0.45-5.57,2.07-7.81c2-2.78,2.8-7.41,2.42-11
		c-0.26-2.44-0.65-3.29-1.83-5.39c-0.92-1.62,0.79-2.7,1.42-4.22c0.69-1.59-0.57-2.38-0.53-3.83c0.11-2.71,4.2-3.11,4.54-5.47
		C85.65,12.8,85.85,12.17,85.96,11.93z"/>
	<path class="st0" d="M122.43,31.64c1.49,1.27,2.89,4.32,2.77,5.79c-0.03,0.42-1.53,2.28-1.7,2.77c-0.36,1.71-0.51,3.37-0.77,5.07
		c-0.7,0.46-1.47,4.92-1.64,5.77c-0.14,0.74-1.12,1.68-0.75,2.46c0.43,0.93,1.09,1.95,0.27,2.99c-0.61,0.75-1.34,3.63-2.75,2.58
		c-1.72-1.23-3.44-1.25-4.67-3.07c-1.68-2.48-2.13-3.01-4.68-4.58c-1.1-1.07-1.45-3.15-1.79-4.62c-0.94-4.16-5.12-5.21-6.71-9.3
		c-0.79-2.02-0.93-4.5-1.93-6.4c-1.73-0.28-0.76-3.67-2.03-4.66c-1.35-1.05-2.68-4.06-2.35-5.59c0.67-3.13,1.64-4.03-1.27-6.03
		c2.91,0.48,4.95,1.69,7.71,0.12c2.66-1.51,3.01-1.68,5.92-0.48c2.02,0.82,5.34,1.19,7.19-0.26c2.72-2.14,2.22-1.17,3.13,1.84
		c0.51,1.67,0.81,3.27,1.43,4.92C118.76,23.45,120.29,29.83,122.43,31.64z"/>
	<path class="st1" d="M34.23,125.75l-0.19-18.02l-0.06-9.73c0,0,0.02-8.31,0.02-10.21c0-1.9-0.1-3.75,0.08-4.86
		c0.19-1.11,0.53-1.8,0.53-1.8s-0.85-2.58-0.65-5.69c0.21-3.09,0.35-5.06,0.5-5.93c0.15-0.85,1.22-4.7,2.77-6.98
		c1.57-2.28,3.95-5.47,5.56-7.02c1.63-1.55,4.54-3.33,4.54-3.33l0.47,0.68c0,0-3.25,1.92-4.65,3.69c-1.42,1.8-4.64,5.49-5.71,7.55
		c-1.09,2.08-1.96,4.22-2.3,7.75c-0.08,3.45-0.3,4.9-0.22,6.04c0.09,1.15,0.33,2.22,0.33,2.22s1.45-2.36,4.49-4.44
		c3.02-2.1,6.05-4.68,8.68-8.23c2.64-3.55,5.43-6.38,7.3-10.69c0.82-1.9,0.39-7.15,0.06-8.72c-0.31-1.57-2.09-3.31-5.9-2.12
		c-4.63,1.45-9.83,5.35-14.55,11.26c-5.59,7-5.36,13.68-5.36,13.68l-0.23-0.02c0,0-1.21-1.96-2.84-3.09
		c-1.64-1.15-1.52-0.85-1.93-1.11c-0.42-0.26-0.81-0.69-1.09-0.69c-0.3-0.02-0.62,0-0.74-0.1c-0.1-0.12-1.08-1.09-2.35-1.21
		c-1.27-0.12-3.18-0.65-3.18-0.65l0.11-0.66c0,0,3.01,0.5,3.89,0.8c0.86,0.3,1.88,1.13,2.1,1.17c0.22,0.04,0.5,0.04,0.82,0.3
		c0.34,0.24,0.55,0.4,0.76,0.49c0.21,0.08,1.67,0.73,2.78,1.82c1.11,1.11,1.46,1.57,1.46,1.57s0.06-3.01-3.77-5.89
		c-2.08-1.53-2.53-1.98-4.75-3.13c-2.49-1.31-9.61-5.29-11.77-3.86c-2.16,1.41-1.8,4.76-1.47,7.13c0.31,2.36-0.02,6.17,4.72,7.7
		c4.7,1.52,8.92,1.25,11.28,1.25c2.36,0,4.78-0.4,6.79,2.28c2.01,2.68,0.87,9,0.49,11.56c-0.38,2.54-1.11,6.07-1.23,8.01
		c-0.12,1.94-0.25,4.46-0.44,5.77c-0.2,1.31-0.8,6.58-0.99,9.48c-0.15,2.88-0.52,8.7,0.28,11.9c0.81,3.21,2.09,3.85,3.11,4.05H34.23
		z"/>
	<g>
		<g>
			<path class="st2" d="M125.32,19.41c-3.32,0-6.02-2.68-6.02-6.01c-0.01-3.31,2.69-6.01,6.02-6.01c3.32,0,6.02,2.68,6.02,6.01
				C131.34,16.71,128.63,19.41,125.32,19.41L125.32,19.41z M125.32,8.13c-2.91,0-5.27,2.36-5.27,5.27c0,2.91,2.37,5.29,5.27,5.27
				c2.91,0,5.27-2.36,5.27-5.27C130.59,10.5,128.22,8.13,125.32,8.13L125.32,8.13z"/>
		</g>
		<g>
			<g>
				<path class="st2" d="M122.56,16.81l-0.01-6.8h3.07c0.41,0,0.77,0.02,1.04,0.1c0.28,0.08,0.52,0.2,0.69,0.34
					c0.17,0.16,0.31,0.36,0.37,0.62c0.08,0.24,0.12,0.55,0.12,0.89c0,0.16-0.01,0.31-0.03,0.43c-0.02,0.14-0.07,0.24-0.12,0.36
					c-0.06,0.12-0.14,0.22-0.24,0.32c-0.1,0.12-0.22,0.22-0.39,0.36c0.15,0.1,0.27,0.18,0.36,0.28c0.08,0.08,0.14,0.18,0.19,0.3
					c0.04,0.12,0.07,0.26,0.08,0.44c0.02,0.16,0.03,0.39,0.05,0.65c0.01,0.22,0.01,0.4,0.03,0.55c0,0.14,0.02,0.24,0.04,0.34
					c0.03,0.08,0.06,0.16,0.1,0.22c0.04,0.06,0.1,0.12,0.17,0.18v0.4h-1.21c-0.17-0.38-0.25-0.78-0.25-1.23
					c0-0.55-0.02-0.91-0.06-1.11h0.01c-0.12-0.32-0.43-0.48-0.9-0.48h-2v2.82H122.56z M123.67,11v2l1.98-0.02
					c0.33,0,0.6-0.08,0.79-0.24c0.2-0.16,0.29-0.4,0.29-0.73v-0.1c0-0.61-0.36-0.91-1.08-0.91H123.67z"/>
			</g>
		</g>
	</g>
	<path class="st3" d="M42.72,81.04c0.16,0.44,0.46,1.15,0.9,2.12c0.44,0.97,0.87,1.96,1.3,2.97c0.43,1.01,0.91,2.06,1.44,3.17
		c0.42,0.87,0.68,1.39,0.73,1.53c1.57-4.06,2.75-7.32,3.55-9.78c1.49,0,2.87-0.06,4.13-0.14c0.12,0,0.21-0.02,0.27-0.02
		c0.26,0,0.38,0.12,0.38,0.36c0,0.2-0.1,0.31-0.29,0.31c-0.72,0-1.18,0.28-1.4,0.84c-0.23,0.55-0.34,1.92-0.34,4.1l-0.01,5.3
		c0,1.09,0.13,1.86,0.37,2.28c0.24,0.44,0.65,0.67,1.2,0.69c0.26,0,0.41,0.13,0.41,0.33c0,0.1-0.06,0.19-0.17,0.26l-2.62-0.02
		c-0.81,0-1.9,0.04-3.29,0.1c-0.12-0.08-0.18-0.18-0.18-0.3c0-0.16,0.16-0.26,0.48-0.33c0.32-0.06,0.56-0.16,0.71-0.28
		c0.15-0.12,0.26-0.36,0.33-0.68c0.08-0.34,0.11-0.83,0.11-1.47l0.04-4.87c0-2.48,0-3.91,0.01-4.28c-1.69,4.56-2.74,7.48-3.15,8.76
		l-0.94,2.95c-0.11,0.3-0.22,0.46-0.32,0.46c-0.11,0-0.24-0.21-0.4-0.59c-0.46-1.11-2.08-4.8-4.87-11.04
		c-0.03,1.79-0.05,4.22-0.05,7.26c0,1.61,0.08,2.64,0.23,3.04c0.16,0.43,0.6,0.69,1.31,0.75c0.24,0.04,0.35,0.14,0.35,0.3
		c0,0.2-0.09,0.28-0.28,0.28c-0.07,0-0.14,0-0.22,0c-0.76-0.06-1.29-0.1-1.62-0.1c-0.89,0-1.55,0.04-2.02,0.1
		c-0.08,0.02-0.14,0.02-0.19,0.02c-0.21,0-0.32-0.1-0.32-0.3c0-0.1,0.03-0.18,0.08-0.22c0.05-0.04,0.19-0.08,0.42-0.14
		c0.6-0.12,0.99-0.38,1.17-0.74c0.19-0.36,0.28-0.99,0.28-1.82L40.28,86c0-1.42-0.03-2.36-0.09-2.81c-0.06-0.46-0.21-0.81-0.46-1.07
		c-0.23-0.24-0.64-0.43-1.18-0.54c-0.2-0.04-0.31-0.18-0.31-0.36c0-0.2,0.12-0.3,0.34-0.3c0.05,0,0.11,0,0.2,0.02
		C39.42,81,40.73,81.04,42.72,81.04z"/>
	<path class="st3" d="M59.79,85.76c0.02,1,0.04,2.82,0.04,5.42l-0.03,2.32c0,0.48,0.07,0.79,0.2,0.95c0.13,0.16,0.35,0.27,0.65,0.32
		c0.35,0.04,0.53,0.16,0.53,0.34c0,0.18-0.14,0.28-0.41,0.28c-0.13,0-0.35,0-0.68-0.02c-0.69-0.06-1.37-0.08-2.04-0.08
		c-0.33,0-0.67,0.02-1.01,0.06c-0.21,0.04-0.35,0.04-0.42,0.04c-0.27,0-0.41-0.1-0.41-0.28c0-0.2,0.18-0.3,0.54-0.34
		c0.49-0.04,0.75-0.24,0.8-0.57c0.06-0.32,0.09-0.97,0.09-1.95c0-1.27-0.02-2.44-0.05-3.51c-0.04-1.07-0.1-1.68-0.19-1.82
		c-0.09-0.16-0.34-0.26-0.74-0.32c-0.3-0.02-0.45-0.12-0.45-0.31c0-0.18,0.15-0.28,0.47-0.3l0.19-0.02L59.79,85.76z M59.66,82.09
		c0,0.43-0.13,0.81-0.39,1.11c-0.27,0.3-0.58,0.46-0.95,0.46c-0.38,0-0.7-0.16-0.96-0.46c-0.26-0.31-0.39-0.68-0.39-1.11
		c0-0.42,0.13-0.81,0.39-1.11c0.26-0.3,0.58-0.44,0.96-0.44c0.36,0,0.68,0.14,0.95,0.44C59.53,81.28,59.66,81.66,59.66,82.09z"/>
	<path class="st3" d="M68.75,92.28c0,0.53-0.11,1.03-0.34,1.52c-0.24,0.51-0.59,0.91-1.06,1.23c-0.47,0.32-1.02,0.49-1.65,0.49
		c-0.78,0-1.44-0.2-1.99-0.59c-0.23-0.14-0.38-0.22-0.46-0.22c-0.08,0-0.13,0.06-0.18,0.18c-0.1,0.28-0.21,0.42-0.35,0.42
		c-0.08,0-0.14-0.04-0.17-0.12c-0.04-0.06-0.06-0.38-0.08-0.95c-0.03-0.59-0.04-1.25-0.04-2.06c0-0.28,0.08-0.44,0.22-0.44
		c0.15,0,0.31,0.22,0.48,0.66c0.6,1.64,1.41,2.44,2.44,2.44c0.36,0,0.68-0.1,0.92-0.33c0.26-0.2,0.38-0.52,0.38-0.93
		c0-0.36-0.11-0.67-0.35-0.91c-0.23-0.24-0.68-0.56-1.33-0.95c-1.01-0.56-1.69-1.07-2.05-1.49c-0.37-0.42-0.56-0.99-0.56-1.69
		c0-0.83,0.27-1.49,0.82-2c0.54-0.5,1.21-0.76,1.99-0.76c0.64,0,1.27,0.22,1.93,0.66c0.09,0.04,0.16,0.08,0.21,0.08
		c0.08,0,0.14-0.08,0.18-0.24c0.07-0.2,0.16-0.3,0.27-0.3c0.09,0,0.14,0.02,0.17,0.1c0.03,0.06,0.08,0.4,0.13,1.01
		c0.05,0.61,0.09,1.11,0.09,1.53c0,0.29-0.08,0.4-0.22,0.4c-0.15,0-0.3-0.2-0.45-0.61c-0.54-1.33-1.3-2.02-2.29-2.02
		c-0.36,0-0.66,0.12-0.88,0.32c-0.22,0.2-0.34,0.42-0.34,0.67c0,0.3,0.15,0.58,0.44,0.85c0.29,0.26,0.85,0.61,1.67,1.05
		c0.71,0.36,1.2,0.67,1.48,0.87c0.27,0.2,0.51,0.51,0.7,0.89C68.66,91.45,68.75,91.85,68.75,92.28z"/>
	<path class="st3" d="M73.2,87.96c0.31-0.73,0.68-1.29,1.08-1.66c0.4-0.34,0.85-0.52,1.35-0.52c0.47,0,0.85,0.14,1.13,0.46
		c0.29,0.32,0.43,0.73,0.43,1.19c0,0.39-0.1,0.71-0.3,0.97c-0.21,0.26-0.45,0.41-0.74,0.41c-0.21,0-0.39-0.08-0.53-0.2
		c-0.15-0.14-0.3-0.36-0.46-0.69c-0.22-0.48-0.42-0.73-0.59-0.73c-0.23,0-0.49,0.28-0.79,0.81c-0.29,0.55-0.44,1.6-0.44,3.17
		c0,1.98,0.06,3.07,0.17,3.29c0.12,0.22,0.37,0.32,0.77,0.32c0.33,0,0.52,0.12,0.52,0.32c0,0.2-0.17,0.3-0.5,0.3
		c-0.19,0-0.46-0.02-0.82-0.06c-0.32-0.02-0.63-0.04-0.92-0.04c-0.61,0-1.22,0.02-1.82,0.08c-0.25,0.02-0.4,0.02-0.46,0.02
		c-0.26,0-0.39-0.1-0.39-0.33c0-0.22,0.15-0.33,0.46-0.33c0.3-0.02,0.5-0.1,0.63-0.26c0.12-0.14,0.17-0.46,0.17-0.97l0.04-2.71
		c0-0.54-0.01-1.23-0.05-2.06c-0.04-0.8-0.07-1.29-0.11-1.45c-0.02-0.16-0.1-0.28-0.23-0.42c-0.13-0.12-0.3-0.18-0.52-0.2
		c-0.22-0.04-0.36-0.06-0.42-0.1c-0.06-0.04-0.1-0.14-0.1-0.26c0-0.19,0.16-0.28,0.47-0.28c0.58-0.02,1.54-0.1,2.93-0.26L73.2,87.96
		z"/>
	<path class="st3" d="M46.84,100.41c0.16,0.93,0.33,1.88,0.5,2.82c0,0.16-0.08,0.27-0.23,0.27c-0.08,0-0.17-0.08-0.27-0.27
		c-0.54-0.91-1.03-1.49-1.47-1.78c-0.44-0.3-1.09-0.44-1.93-0.44c-0.48,0-0.92,0.04-1.36,0.14c-0.09,1.07-0.14,2.24-0.14,3.51
		c0,0.22,0.01,0.59,0.02,1.09l0.59,0.02c0.36,0,0.68-0.06,0.95-0.18c0.27-0.12,0.5-0.36,0.68-0.75c0.19-0.38,0.29-0.65,0.33-0.74
		c0.04-0.2,0.12-0.28,0.24-0.28c0.14,0,0.21,0.06,0.21,0.2c0,0.04,0,0.1-0.01,0.14c-0.06,0.38-0.09,1.52-0.09,3.37
		c0,0.26,0.02,0.51,0.06,0.71c0.01,0.06,0.01,0.12,0.01,0.16c0,0.16-0.08,0.24-0.26,0.24c-0.1,0-0.2-0.14-0.26-0.47
		c-0.1-0.56-0.34-0.99-0.71-1.29c-0.38-0.3-0.96-0.44-1.75-0.46c-0.03,1.03-0.04,1.69-0.04,2.02c0,1.37,0.02,2.2,0.05,2.44
		c0.04,0.26,0.17,0.48,0.4,0.64c0.23,0.16,0.62,0.24,1.16,0.24c1.98,0,3.29-0.75,3.92-2.2c0.08-0.2,0.18-0.33,0.28-0.33
		c0.15,0,0.23,0.08,0.23,0.22c0,0.1-0.02,0.22-0.05,0.38l-0.5,2.6l-2.83-0.02c-0.8,0-1.54-0.02-2.23-0.06
		c-0.7-0.04-1.23-0.06-1.62-0.06c-0.43,0-1.09,0.04-1.98,0.1c-0.1,0.02-0.18,0.02-0.23,0.02c-0.25,0-0.38-0.1-0.38-0.28
		c0-0.16,0.1-0.27,0.29-0.27c0.51,0,0.85-0.16,1.02-0.46c0.18-0.33,0.26-0.97,0.26-1.94l0.05-4.68c0-1.59-0.02-2.56-0.05-2.93
		c-0.03-0.38-0.12-0.62-0.27-0.75c-0.14-0.14-0.41-0.24-0.82-0.3c-0.16-0.02-0.25-0.1-0.25-0.24c0-0.18,0.1-0.28,0.29-0.28
		l1.88,0.06L46.84,100.41z"/>
	<path class="st3" d="M51.62,99.89l0.02,7.61c0,2.42,0.06,3.75,0.16,3.97c0.11,0.22,0.31,0.34,0.63,0.36
		c0.36,0.02,0.54,0.1,0.54,0.26c0,0.18-0.11,0.28-0.33,0.28c-0.06,0-0.15-0.02-0.27-0.02c-0.5-0.06-1-0.08-1.47-0.08
		c-0.77,0-1.33,0.02-1.71,0.08c-0.1,0-0.2,0.02-0.28,0.02c-0.23,0-0.35-0.08-0.35-0.24c0-0.16,0.14-0.26,0.4-0.26
		c0.28-0.02,0.49-0.08,0.62-0.2c0.13-0.1,0.21-0.24,0.24-0.42c0.03-0.18,0.04-0.61,0.04-1.29l-0.03-3.57l0.03-2.82
		c0-1.17-0.05-1.88-0.15-2.14c-0.09-0.24-0.37-0.42-0.86-0.5c-0.28-0.06-0.42-0.14-0.42-0.3c0-0.08,0.03-0.14,0.09-0.18
		c0.07-0.02,0.23-0.06,0.49-0.08C50.07,100.25,50.94,100.08,51.62,99.89z"/>
	<path class="st3" d="M61.52,106.02c0.57-0.55,1.23-1.31,1.97-2.3c0.75-1.01,1.18-1.59,1.29-1.79c0.12-0.2,0.18-0.36,0.18-0.48
		c0-0.3-0.25-0.51-0.72-0.63c-0.21-0.06-0.32-0.14-0.32-0.3c0-0.18,0.1-0.26,0.29-0.26c0.07,0,0.16,0,0.27,0
		c0.39,0.08,0.97,0.1,1.73,0.1c0.18,0,0.49,0,0.91-0.04c0.4-0.02,0.66-0.04,0.8-0.04c0.22,0,0.33,0.08,0.33,0.26
		c0,0.16-0.1,0.26-0.32,0.28c-0.3,0.04-0.6,0.15-0.89,0.28c-0.31,0.16-0.68,0.44-1.09,0.83c-0.42,0.4-0.86,0.87-1.31,1.45
		l-1.53,1.95l0.51-0.02c0.61,0,1.11,0.14,1.5,0.44c0.4,0.3,0.69,0.67,0.86,1.09c0.17,0.42,0.36,1.15,0.58,2.22
		c0.17,0.79,0.3,1.35,0.41,1.65c0.11,0.32,0.28,0.59,0.51,0.83c0.23,0.22,0.48,0.34,0.77,0.36c0.22,0.02,0.34,0.1,0.34,0.22
		c0,0.18-0.11,0.29-0.33,0.29c-0.06,0-0.15,0-0.27-0.02c-0.45-0.06-0.93-0.08-1.41-0.08c-0.5,0-1.02,0.02-1.53,0.1
		c-0.17-0.32-0.32-0.67-0.39-1.03c-0.1-0.36-0.24-1.23-0.42-2.62c-0.14-1.01-0.33-1.7-0.59-2.06c-0.24-0.34-0.52-0.53-0.82-0.53
		c-0.36,0-0.8,0.26-1.29,0.83l-0.02,2.34c0,1.07,0.05,1.76,0.15,2.02c0.11,0.26,0.39,0.42,0.86,0.51c0.24,0.02,0.36,0.1,0.36,0.22
		c0,0.22-0.1,0.32-0.32,0.32c-0.1,0-0.26-0.02-0.46-0.04c-0.52-0.06-1.15-0.1-1.88-0.1c-0.46,0-1,0.04-1.6,0.12
		c-0.21,0.02-0.36,0.04-0.45,0.04c-0.18,0-0.27-0.1-0.27-0.31c0-0.1,0.03-0.16,0.08-0.2c0.06-0.04,0.19-0.06,0.4-0.08
		c0.25-0.04,0.43-0.12,0.55-0.24c0.1-0.12,0.18-0.3,0.24-0.59c0.04-0.28,0.08-0.97,0.11-2.04c0.03-1.09,0.04-2.28,0.04-3.58
		c0-1.33-0.01-2.26-0.04-2.8c-0.03-0.55-0.09-0.93-0.17-1.19c-0.09-0.26-0.19-0.42-0.29-0.5c-0.11-0.06-0.32-0.12-0.65-0.14
		c-0.16-0.02-0.25-0.1-0.25-0.26c0-0.18,0.13-0.28,0.39-0.28c0.19,0,0.46,0.02,0.85,0.06c0.47,0.04,0.83,0.06,1.14,0.06
		c0.18,0,0.69-0.02,1.55-0.06c0.25-0.02,0.44-0.02,0.58-0.02c0.2,0,0.29,0.08,0.29,0.24c0,0.16-0.1,0.26-0.3,0.28
		c-0.35,0.04-0.58,0.14-0.67,0.3c-0.1,0.16-0.16,0.39-0.17,0.73C61.54,102.15,61.52,103.56,61.52,106.02z"/>
	<path class="st3" d="M71.98,99.9c-0.03,0.61-0.04,1.13-0.04,1.57l0.01,2.42c0,1.03,0.01,1.67,0.03,1.9
		c0.31-0.48,0.64-0.84,1.02-1.09c0.37-0.24,0.8-0.36,1.25-0.36c0.36,0,0.7,0.08,1.03,0.28c0.33,0.2,0.58,0.53,0.76,0.99
		c0.17,0.45,0.27,1.25,0.27,2.38l-0.03,2.86c0,0.6,0.21,0.95,0.64,1.01c0.16,0,0.25,0.08,0.25,0.24c0,0.16-0.09,0.26-0.27,0.26
		c-0.04,0-0.11-0.02-0.21-0.02c-0.36-0.06-0.9-0.08-1.62-0.08c-0.12,0-0.33,0.02-0.64,0.06c-0.22,0.02-0.4,0.04-0.57,0.04
		c-0.21,0-0.32-0.08-0.32-0.24c0-0.14,0.12-0.24,0.36-0.28c0.24-0.04,0.39-0.2,0.46-0.52c0.07-0.3,0.1-1.21,0.1-2.74
		c0-1.39-0.06-2.32-0.18-2.75c-0.12-0.43-0.37-0.64-0.75-0.64c-0.31,0-0.61,0.18-0.93,0.54c-0.29,0.38-0.5,0.89-0.59,1.53
		c-0.09,0.65-0.14,1.45-0.14,2.4c0,0.51,0.02,0.93,0.06,1.29c0.04,0.36,0.1,0.59,0.18,0.68c0.07,0.08,0.2,0.14,0.38,0.18
		c0.2,0.02,0.29,0.12,0.29,0.28c0,0.16-0.11,0.24-0.33,0.24c-0.16,0-0.4-0.02-0.73-0.06c-0.26-0.02-0.49-0.04-0.7-0.04
		c-0.42,0-0.8,0.04-1.15,0.08c-0.17,0.02-0.4,0.04-0.69,0.04c-0.15,0-0.23-0.08-0.23-0.26c0-0.14,0.11-0.22,0.32-0.26
		c0.26-0.04,0.44-0.16,0.54-0.38c0.1-0.22,0.17-1.01,0.21-2.38c0.04-1.37,0.05-3.47,0.05-6.3c0-0.87-0.05-1.43-0.17-1.67
		c-0.11-0.26-0.3-0.44-0.58-0.55c-0.26-0.1-0.39-0.22-0.39-0.34c0-0.16,0.12-0.24,0.34-0.24C70.11,99.99,70.99,99.96,71.98,99.9z"/>
	<path class="st3" d="M80.25,108.14c0,0.18,0,0.3,0,0.38c0,0.87,0.17,1.59,0.54,2.18c0.36,0.61,0.86,0.89,1.47,0.89
		c0.63,0,1.25-0.3,1.86-0.95c0.12-0.12,0.21-0.18,0.26-0.18c0.14,0,0.2,0.08,0.2,0.24c0,0.14-0.16,0.38-0.47,0.73
		c-0.31,0.34-0.69,0.6-1.15,0.79c-0.45,0.16-0.93,0.26-1.4,0.26c-1.07,0-1.9-0.38-2.49-1.13c-0.6-0.77-0.91-1.65-0.91-2.66
		c0-1.23,0.34-2.26,1.03-3.09c0.7-0.83,1.55-1.25,2.58-1.25c0.97,0,1.72,0.38,2.22,1.13c0.5,0.76,0.76,1.47,0.76,2.16
		c0,0.22-0.05,0.34-0.15,0.39c-0.09,0.06-0.41,0.08-0.96,0.08L80.25,108.14z M80.3,107.47c0.78,0.02,1.23,0.02,1.33,0.02
		c0.59,0,0.95-0.04,1.09-0.14c0.13-0.1,0.19-0.28,0.19-0.58c0-0.51-0.12-0.93-0.36-1.31c-0.24-0.38-0.54-0.56-0.88-0.56
		C80.87,104.89,80.42,105.76,80.3,107.47z"/>
	<path class="st3" d="M88.51,104.3c0.02,0.85,0.02,2.36,0.02,4.52l-0.02,1.96c0,0.38,0.06,0.66,0.17,0.78
		c0.11,0.14,0.29,0.22,0.54,0.26c0.29,0.04,0.44,0.14,0.44,0.3c0,0.16-0.12,0.24-0.35,0.24c-0.1,0-0.29-0.02-0.56-0.04
		c-0.58-0.04-1.14-0.06-1.69-0.06c-0.28,0-0.57,0.02-0.85,0.06c-0.17,0.02-0.3,0.04-0.35,0.04c-0.23,0-0.34-0.08-0.34-0.24
		c0-0.16,0.15-0.26,0.45-0.28c0.4-0.04,0.63-0.2,0.67-0.46c0.05-0.28,0.08-0.83,0.08-1.65c0-1.05-0.02-2.04-0.05-2.93
		c-0.03-0.89-0.08-1.4-0.16-1.53c-0.07-0.12-0.28-0.2-0.61-0.24c-0.25-0.04-0.38-0.12-0.38-0.26c0-0.14,0.13-0.24,0.39-0.26
		l0.16-0.02L88.51,104.3z M88.4,101.24c0,0.36-0.11,0.66-0.33,0.93c-0.22,0.26-0.48,0.38-0.8,0.38c-0.31,0-0.57-0.12-0.8-0.38
		c-0.21-0.27-0.32-0.57-0.32-0.93c0-0.36,0.11-0.67,0.32-0.91c0.22-0.26,0.48-0.38,0.8-0.38c0.31,0,0.58,0.12,0.8,0.38
		C88.29,100.57,88.4,100.87,88.4,101.24z"/>
	<path class="st3" d="M93.06,106.14c0.25-0.61,0.56-1.07,0.9-1.37c0.33-0.3,0.7-0.44,1.13-0.44c0.39,0,0.7,0.12,0.95,0.39
		c0.24,0.28,0.36,0.6,0.36,1.01c0,0.32-0.08,0.59-0.25,0.81c-0.18,0.2-0.39,0.33-0.63,0.33c-0.18,0-0.33-0.06-0.44-0.17
		c-0.12-0.1-0.25-0.3-0.38-0.58c-0.19-0.4-0.35-0.58-0.49-0.58c-0.19,0-0.42,0.22-0.66,0.66c-0.24,0.47-0.37,1.33-0.37,2.65
		c0,1.63,0.05,2.56,0.15,2.74c0.09,0.18,0.3,0.28,0.63,0.28c0.28,0,0.43,0.08,0.43,0.26c0,0.18-0.14,0.26-0.42,0.26
		c-0.16,0-0.39-0.02-0.69-0.06c-0.27-0.02-0.52-0.04-0.76-0.04c-0.51,0-1.02,0.02-1.53,0.06c-0.21,0.02-0.34,0.04-0.37,0.04
		c-0.22,0-0.34-0.1-0.34-0.3c0-0.16,0.13-0.24,0.39-0.26c0.25,0,0.42-0.08,0.52-0.2c0.09-0.12,0.14-0.39,0.14-0.81l0.04-2.26
		c0-0.47-0.02-1.03-0.05-1.72c-0.03-0.69-0.06-1.09-0.08-1.21c-0.03-0.14-0.1-0.24-0.2-0.36c-0.11-0.1-0.25-0.16-0.43-0.16
		c-0.19-0.04-0.31-0.06-0.36-0.1c-0.06-0.02-0.08-0.1-0.08-0.2c0-0.16,0.13-0.24,0.39-0.26c0.47,0,1.29-0.06,2.44-0.2L93.06,106.14z
		"/>
	<g>
		<path class="st2" d="M7.1,147.2v-5.87h1.19v2.3h2.32v-2.3h1.19v5.87h-1.19v-2.58H8.29v2.58H7.1z"/>
		<path class="st2" d="M15.82,147.2v-0.65c-0.16,0.22-0.36,0.4-0.61,0.54c-0.25,0.12-0.52,0.18-0.8,0.18
			c-0.28,0-0.54-0.06-0.77-0.18c-0.22-0.12-0.39-0.3-0.49-0.53c-0.1-0.24-0.15-0.54-0.15-0.95v-2.68h1.12v1.96
			c0,0.58,0.03,0.95,0.07,1.09c0.04,0.14,0.12,0.24,0.22,0.32c0.11,0.08,0.25,0.12,0.43,0.12c0.19,0,0.36-0.06,0.51-0.16
			c0.15-0.1,0.25-0.24,0.31-0.38c0.05-0.16,0.08-0.54,0.08-1.15v-1.8h1.13v4.26H15.82z"/>
		<path class="st2" d="M17.95,142.95h1.04v0.56c0.36-0.44,0.81-0.66,1.32-0.66c0.27,0,0.52,0.06,0.72,0.16
			c0.19,0.12,0.36,0.28,0.48,0.5c0.19-0.22,0.39-0.38,0.61-0.5c0.22-0.1,0.45-0.16,0.7-0.16c0.31,0,0.57,0.06,0.8,0.18
			c0.21,0.14,0.37,0.32,0.47,0.56c0.08,0.18,0.12,0.49,0.12,0.89v2.73h-1.13v-2.44c0-0.42-0.03-0.68-0.11-0.81
			c-0.1-0.16-0.26-0.24-0.49-0.24c-0.15,0-0.3,0.04-0.44,0.14c-0.14,0.1-0.24,0.24-0.29,0.43c-0.07,0.18-0.1,0.46-0.1,0.87v2.06
			h-1.12v-2.34c0-0.41-0.02-0.69-0.06-0.81c-0.04-0.12-0.1-0.2-0.18-0.26c-0.09-0.06-0.2-0.08-0.35-0.08
			c-0.18,0-0.33,0.04-0.47,0.14c-0.14,0.08-0.24,0.22-0.3,0.4c-0.05,0.16-0.09,0.46-0.09,0.87v2.08h-1.12V142.95z"/>
		<path class="st2" d="M26.17,144.24l-1.03-0.18c0.12-0.42,0.31-0.73,0.6-0.91c0.28-0.2,0.7-0.3,1.25-0.3c0.5,0,0.88,0.06,1.12,0.18
			c0.24,0.12,0.42,0.26,0.53,0.44c0.1,0.18,0.14,0.52,0.14,1.01l-0.01,1.31c0,0.38,0.02,0.67,0.05,0.83
			c0.04,0.18,0.11,0.36,0.21,0.59h-1.11c-0.04-0.08-0.07-0.2-0.11-0.34c-0.02-0.06-0.04-0.1-0.04-0.12c-0.2,0.18-0.4,0.32-0.63,0.4
			c-0.22,0.1-0.44,0.14-0.7,0.14c-0.44,0-0.79-0.1-1.04-0.34c-0.25-0.24-0.37-0.55-0.37-0.91c0-0.24,0.05-0.46,0.17-0.65
			c0.11-0.18,0.27-0.33,0.48-0.42c0.2-0.1,0.51-0.2,0.89-0.26c0.53-0.1,0.9-0.2,1.1-0.28v-0.12c0-0.21-0.05-0.37-0.16-0.45
			c-0.11-0.1-0.31-0.14-0.6-0.14c-0.2,0-0.35,0.04-0.47,0.12C26.33,143.89,26.23,144.03,26.17,144.24z M27.67,145.15
			c-0.15,0.06-0.38,0.12-0.69,0.18c-0.31,0.06-0.51,0.12-0.62,0.2c-0.14,0.1-0.22,0.22-0.22,0.38c0,0.16,0.06,0.3,0.18,0.41
			c0.11,0.12,0.26,0.18,0.44,0.18c0.2,0,0.41-0.06,0.59-0.2c0.13-0.1,0.22-0.22,0.26-0.36c0.03-0.1,0.05-0.28,0.05-0.57V145.15z"/>
		<path class="st2" d="M33.76,147.2h-1.13v-2.18c0-0.46-0.02-0.75-0.07-0.89c-0.05-0.14-0.12-0.24-0.23-0.32
			c-0.11-0.06-0.24-0.1-0.4-0.1c-0.19,0-0.36,0.04-0.53,0.16c-0.15,0.1-0.26,0.24-0.31,0.43c-0.06,0.16-0.09,0.48-0.09,0.97v1.94
			h-1.12v-4.26h1.04v0.63c0.38-0.48,0.84-0.73,1.41-0.73c0.25,0,0.47,0.04,0.69,0.14c0.2,0.08,0.36,0.2,0.46,0.34
			c0.1,0.14,0.18,0.28,0.22,0.46c0.04,0.18,0.06,0.42,0.06,0.77V147.2z"/>
		<path class="st2" d="M37.19,141.33h2.16c0.5,0,0.87,0.04,1.12,0.1c0.34,0.1,0.64,0.28,0.89,0.54c0.24,0.26,0.43,0.57,0.55,0.95
			c0.13,0.38,0.19,0.83,0.19,1.39c0,0.48-0.05,0.88-0.17,1.25c-0.15,0.42-0.36,0.76-0.64,1.03c-0.2,0.2-0.48,0.36-0.83,0.46
			c-0.26,0.08-0.62,0.14-1.05,0.14h-2.23V141.33z M38.37,142.32v3.9h0.89c0.33,0,0.56-0.02,0.72-0.06c0.19-0.06,0.34-0.14,0.47-0.24
			c0.13-0.12,0.23-0.3,0.31-0.56c0.08-0.26,0.12-0.63,0.12-1.09c0-0.44-0.04-0.79-0.12-1.05c-0.08-0.24-0.19-0.42-0.34-0.57
			c-0.14-0.14-0.32-0.22-0.55-0.28c-0.16-0.02-0.48-0.04-0.97-0.04H38.37z"/>
		<path class="st2" d="M45.56,145.85l1.12,0.18c-0.14,0.4-0.36,0.73-0.68,0.93c-0.31,0.22-0.7,0.32-1.17,0.32
			c-0.74,0-1.28-0.24-1.64-0.73c-0.27-0.39-0.41-0.87-0.41-1.45c0-0.7,0.18-1.27,0.55-1.65c0.37-0.4,0.84-0.61,1.4-0.61
			c0.64,0,1.13,0.2,1.51,0.63c0.36,0.42,0.53,1.05,0.52,1.92h-2.82c0.01,0.35,0.1,0.59,0.27,0.79c0.17,0.18,0.39,0.28,0.66,0.28
			c0.17,0,0.32-0.06,0.43-0.14C45.42,146.22,45.5,146.06,45.56,145.85z M45.63,144.7c-0.01-0.32-0.09-0.56-0.25-0.75
			c-0.16-0.16-0.36-0.24-0.59-0.24c-0.24,0-0.44,0.08-0.62,0.26c-0.15,0.18-0.23,0.42-0.23,0.73H45.63z"/>
		<path class="st2" d="M48.83,147.2l-1.72-4.26h1.19l0.8,2.16l0.23,0.73c0.06-0.18,0.1-0.3,0.12-0.36c0.03-0.12,0.08-0.24,0.11-0.36
			l0.81-2.16h1.15l-1.69,4.26H48.83z"/>
		<path class="st2" d="M54.69,145.85l1.12,0.18c-0.14,0.4-0.37,0.73-0.68,0.93c-0.3,0.22-0.7,0.32-1.16,0.32
			c-0.74,0-1.29-0.24-1.64-0.73c-0.28-0.39-0.42-0.87-0.42-1.45c0-0.7,0.18-1.27,0.55-1.65c0.36-0.4,0.84-0.61,1.4-0.61
			c0.62,0,1.13,0.2,1.49,0.63c0.36,0.42,0.55,1.05,0.52,1.92h-2.83c0.01,0.35,0.1,0.59,0.28,0.79c0.16,0.18,0.38,0.28,0.65,0.28
			c0.18,0,0.32-0.06,0.44-0.14C54.54,146.22,54.63,146.06,54.69,145.85z M54.76,144.7c-0.02-0.32-0.1-0.56-0.26-0.75
			c-0.16-0.16-0.35-0.24-0.58-0.24c-0.25,0-0.45,0.08-0.61,0.26c-0.16,0.18-0.24,0.42-0.24,0.73H54.76z"/>
		<path class="st2" d="M56.79,147.2v-5.87h1.12v5.87H56.79z"/>
		<path class="st2" d="M58.82,145c0-0.36,0.08-0.73,0.26-1.09c0.19-0.34,0.44-0.61,0.79-0.79c0.34-0.18,0.72-0.28,1.13-0.28
			c0.64,0,1.17,0.2,1.58,0.63c0.41,0.42,0.62,0.95,0.62,1.59c0,0.63-0.2,1.17-0.62,1.6c-0.42,0.42-0.93,0.63-1.57,0.63
			c-0.4,0-0.76-0.08-1.12-0.26c-0.34-0.16-0.61-0.42-0.81-0.76C58.9,145.91,58.82,145.49,58.82,145z M59.97,145.06
			c0,0.43,0.1,0.75,0.29,0.97c0.2,0.22,0.45,0.34,0.75,0.34c0.29,0,0.54-0.12,0.74-0.34c0.2-0.22,0.3-0.54,0.3-0.97
			c0-0.42-0.1-0.74-0.3-0.97c-0.2-0.22-0.44-0.34-0.74-0.34c-0.29,0-0.55,0.12-0.75,0.34C60.07,144.32,59.97,144.64,59.97,145.06z"
			/>
		<path class="st2" d="M64.04,142.95h1.06v0.63c0.13-0.22,0.31-0.38,0.54-0.53c0.23-0.14,0.5-0.2,0.78-0.2
			c0.5,0,0.91,0.18,1.26,0.59c0.34,0.38,0.5,0.93,0.5,1.61c0,0.71-0.16,1.27-0.51,1.65c-0.34,0.4-0.77,0.59-1.26,0.59
			c-0.24,0-0.44-0.04-0.64-0.14c-0.19-0.08-0.39-0.24-0.6-0.46v2.14h-1.13V142.95z M65.15,144.98c0,0.48,0.1,0.85,0.29,1.07
			c0.19,0.22,0.42,0.34,0.7,0.34c0.26,0,0.47-0.1,0.64-0.31c0.17-0.22,0.27-0.56,0.27-1.05c0-0.44-0.09-0.77-0.28-0.99
			c-0.17-0.22-0.39-0.32-0.67-0.32c-0.27,0-0.5,0.1-0.68,0.32C65.25,144.28,65.15,144.58,65.15,144.98z"/>
		<path class="st2" d="M69.01,142.95h1.04v0.56c0.36-0.44,0.81-0.66,1.32-0.66c0.27,0,0.5,0.06,0.72,0.16
			c0.19,0.12,0.36,0.28,0.48,0.5c0.19-0.22,0.39-0.38,0.61-0.5c0.22-0.1,0.44-0.16,0.69-0.16c0.32,0,0.58,0.06,0.8,0.18
			c0.21,0.14,0.37,0.32,0.47,0.56c0.08,0.18,0.12,0.49,0.12,0.89v2.73h-1.13v-2.44c0-0.42-0.03-0.68-0.11-0.81
			c-0.11-0.16-0.26-0.24-0.48-0.24c-0.15,0-0.3,0.04-0.44,0.14c-0.14,0.1-0.23,0.24-0.3,0.43c-0.06,0.18-0.08,0.46-0.08,0.87v2.06
			h-1.13v-2.34c0-0.41-0.02-0.69-0.06-0.81c-0.04-0.12-0.1-0.2-0.18-0.26c-0.09-0.06-0.2-0.08-0.34-0.08
			c-0.18,0-0.33,0.04-0.47,0.14c-0.14,0.08-0.24,0.22-0.3,0.4c-0.06,0.16-0.09,0.46-0.09,0.87v2.08h-1.12V142.95z"/>
		<path class="st2" d="M78.84,145.85l1.13,0.18c-0.15,0.4-0.38,0.73-0.69,0.93c-0.31,0.22-0.7,0.32-1.17,0.32
			c-0.74,0-1.29-0.24-1.64-0.73c-0.27-0.39-0.41-0.87-0.41-1.45c0-0.7,0.18-1.27,0.54-1.65c0.37-0.4,0.84-0.61,1.4-0.61
			c0.64,0,1.14,0.2,1.5,0.63c0.36,0.42,0.53,1.05,0.53,1.92h-2.82c0.01,0.35,0.1,0.59,0.27,0.79c0.17,0.18,0.39,0.28,0.65,0.28
			c0.18,0,0.33-0.06,0.44-0.14C78.71,146.22,78.78,146.06,78.84,145.85z M78.92,144.7c-0.01-0.32-0.09-0.56-0.25-0.75
			c-0.16-0.16-0.35-0.24-0.59-0.24c-0.25,0-0.46,0.08-0.61,0.26c-0.16,0.18-0.24,0.42-0.24,0.73H78.92z"/>
		<path class="st2" d="M84.82,147.2h-1.13v-2.18c0-0.46-0.02-0.75-0.07-0.89c-0.05-0.14-0.12-0.24-0.23-0.32
			c-0.11-0.06-0.24-0.1-0.38-0.1c-0.2,0-0.39,0.04-0.54,0.16c-0.15,0.1-0.26,0.24-0.31,0.43c-0.06,0.16-0.09,0.48-0.09,0.97v1.94
			h-1.12v-4.26h1.05v0.63c0.36-0.48,0.83-0.73,1.39-0.73c0.25,0,0.48,0.04,0.68,0.14c0.2,0.08,0.36,0.2,0.46,0.34
			c0.1,0.14,0.18,0.28,0.22,0.46c0.04,0.18,0.06,0.42,0.06,0.77V147.2z"/>
		<path class="st2" d="M87.91,142.95v0.89h-0.76v1.71c0,0.34,0,0.54,0.01,0.61c0.02,0.06,0.05,0.1,0.1,0.14
			c0.06,0.04,0.12,0.06,0.19,0.06c0.1,0,0.26-0.04,0.46-0.1l0.1,0.87c-0.26,0.1-0.57,0.16-0.89,0.16c-0.21,0-0.4-0.02-0.56-0.1
			c-0.16-0.06-0.28-0.16-0.35-0.26c-0.08-0.1-0.13-0.24-0.16-0.44c-0.02-0.12-0.04-0.39-0.04-0.79v-1.85h-0.51v-0.89h0.51v-0.85
			l1.14-0.67v1.51H87.91z"/>
		<path class="st2" d="M90.97,142.36v-1.03h1.13v1.03H90.97z M90.97,147.2v-4.26h1.13v4.26H90.97z"/>
		<path class="st2" d="M92.85,145.97l1.14-0.16c0.04,0.22,0.14,0.38,0.29,0.5c0.14,0.1,0.34,0.16,0.62,0.16
			c0.29,0,0.5-0.06,0.65-0.16c0.1-0.08,0.14-0.18,0.14-0.3c0-0.08-0.02-0.17-0.08-0.2c-0.05-0.06-0.18-0.1-0.37-0.16
			c-0.91-0.2-1.48-0.38-1.72-0.54c-0.33-0.22-0.51-0.54-0.51-0.95c0-0.39,0.14-0.69,0.44-0.93c0.29-0.26,0.75-0.38,1.36-0.38
			c0.57,0,1.01,0.1,1.29,0.28c0.28,0.2,0.48,0.46,0.58,0.85l-1.06,0.18c-0.05-0.16-0.13-0.28-0.25-0.36
			c-0.13-0.1-0.31-0.14-0.56-0.14c-0.29,0-0.51,0.04-0.64,0.12c-0.08,0.06-0.12,0.14-0.12,0.24c0,0.06,0.04,0.14,0.11,0.2
			c0.09,0.06,0.45,0.18,1.05,0.31c0.59,0.14,1.02,0.3,1.25,0.5c0.24,0.2,0.36,0.48,0.36,0.85c0,0.38-0.16,0.73-0.48,0.99
			c-0.32,0.28-0.81,0.43-1.44,0.43c-0.59,0-1.04-0.1-1.38-0.34C93.18,146.7,92.96,146.37,92.85,145.97z"/>
		<path class="st2" d="M100.09,147.2v-1.13h1.13v1.13H100.09z"/>
		<path class="st2" d="M102.37,147.2v-1.13h1.13v1.13H102.37z"/>
		<path class="st2" d="M106.69,144.3c0-0.61,0.09-1.11,0.28-1.51c0.12-0.28,0.3-0.57,0.54-0.81c0.22-0.22,0.48-0.4,0.76-0.52
			c0.36-0.16,0.77-0.22,1.26-0.22c0.87,0,1.56,0.26,2.08,0.79c0.53,0.54,0.78,1.29,0.78,2.26c0,0.93-0.25,1.67-0.78,2.22
			c-0.51,0.52-1.2,0.8-2.06,0.8c-0.88,0-1.57-0.28-2.09-0.8C106.95,145.97,106.69,145.23,106.69,144.3z M107.92,144.26
			c0,0.66,0.15,1.17,0.45,1.51c0.31,0.34,0.71,0.5,1.18,0.5c0.46,0,0.85-0.16,1.16-0.5c0.3-0.34,0.46-0.85,0.46-1.53
			c0-0.67-0.15-1.17-0.44-1.52c-0.29-0.32-0.69-0.48-1.17-0.48c-0.51,0-0.89,0.16-1.19,0.5
			C108.08,143.07,107.92,143.57,107.92,144.26z"/>
		<path class="st2" d="M116.11,147.2v-0.65c-0.16,0.22-0.36,0.4-0.62,0.54c-0.25,0.12-0.51,0.18-0.8,0.18
			c-0.28,0-0.54-0.06-0.76-0.18c-0.23-0.12-0.39-0.3-0.5-0.53c-0.1-0.24-0.15-0.54-0.15-0.95v-2.68h1.12v1.96
			c0,0.58,0.03,0.95,0.07,1.09c0.03,0.14,0.11,0.24,0.22,0.32c0.11,0.08,0.25,0.12,0.42,0.12c0.19,0,0.36-0.06,0.52-0.16
			c0.15-0.1,0.26-0.24,0.31-0.38c0.06-0.16,0.08-0.54,0.08-1.15v-1.8h1.13v4.26H116.11z"/>
		<path class="st2" d="M119.4,147.2h-1.13v-4.26h1.05v0.61c0.18-0.3,0.33-0.48,0.48-0.56c0.14-0.1,0.29-0.14,0.49-0.14
			c0.25,0,0.5,0.06,0.73,0.22l-0.34,0.97c-0.19-0.12-0.37-0.18-0.54-0.18c-0.15,0-0.29,0.04-0.39,0.12c-0.11,0.1-0.2,0.24-0.26,0.48
			c-0.06,0.22-0.09,0.71-0.09,1.41V147.2z"/>
		<path class="st2" d="M123.79,147.2v-5.87h1.77l1.07,4l1.06-4h1.77v5.87h-1.1v-4.64l-1.16,4.64h-1.14l-1.16-4.64v4.64H123.79z"/>
		<path class="st2" d="M130.63,142.36v-1.03h1.12v1.03H130.63z M130.63,147.2v-4.26h1.12v4.26H130.63z"/>
		<path class="st2" d="M132.51,145.97l1.13-0.16c0.05,0.22,0.14,0.38,0.29,0.5c0.15,0.1,0.35,0.16,0.62,0.16
			c0.29,0,0.51-0.06,0.65-0.16c0.1-0.08,0.15-0.18,0.15-0.3c0-0.08-0.03-0.17-0.08-0.2c-0.06-0.06-0.18-0.1-0.37-0.16
			c-0.91-0.2-1.48-0.38-1.73-0.54c-0.34-0.22-0.51-0.54-0.51-0.95c0-0.39,0.14-0.69,0.43-0.93c0.29-0.26,0.74-0.38,1.36-0.38
			c0.58,0,1.02,0.1,1.3,0.28c0.28,0.2,0.47,0.46,0.59,0.85l-1.07,0.18c-0.04-0.16-0.12-0.28-0.25-0.36
			c-0.13-0.1-0.31-0.14-0.54-0.14c-0.29,0-0.5,0.04-0.64,0.12c-0.08,0.06-0.12,0.14-0.12,0.24c0,0.06,0.03,0.14,0.1,0.2
			c0.1,0.06,0.45,0.18,1.06,0.31c0.59,0.14,1.02,0.3,1.25,0.5c0.23,0.2,0.36,0.48,0.36,0.85c0,0.38-0.16,0.73-0.48,0.99
			c-0.33,0.28-0.81,0.43-1.45,0.43c-0.58,0-1.03-0.1-1.37-0.34C132.83,146.7,132.61,146.37,132.51,145.97z"/>
		<path class="st2" d="M137.07,145.97l1.13-0.16c0.05,0.22,0.15,0.38,0.29,0.5c0.15,0.1,0.35,0.16,0.63,0.16
			c0.29,0,0.5-0.06,0.65-0.16c0.1-0.08,0.14-0.18,0.14-0.3c0-0.08-0.02-0.17-0.08-0.2c-0.05-0.06-0.18-0.1-0.37-0.16
			c-0.91-0.2-1.48-0.38-1.73-0.54c-0.33-0.22-0.5-0.54-0.5-0.95c0-0.39,0.14-0.69,0.43-0.93c0.29-0.26,0.75-0.38,1.36-0.38
			c0.58,0,1.01,0.1,1.29,0.28c0.28,0.2,0.47,0.46,0.59,0.85l-1.06,0.18c-0.05-0.16-0.13-0.28-0.26-0.36
			c-0.13-0.1-0.3-0.14-0.54-0.14c-0.29,0-0.51,0.04-0.64,0.12c-0.08,0.06-0.12,0.14-0.12,0.24c0,0.06,0.03,0.14,0.11,0.2
			c0.1,0.06,0.45,0.18,1.05,0.31c0.59,0.14,1.02,0.3,1.25,0.5c0.23,0.2,0.35,0.48,0.35,0.85c0,0.38-0.16,0.73-0.48,0.99
			c-0.33,0.28-0.81,0.43-1.44,0.43c-0.59,0-1.04-0.1-1.39-0.34C137.4,146.7,137.17,146.37,137.07,145.97z"/>
		<path class="st2" d="M142.03,142.36v-1.03h1.13v1.03H142.03z M142.03,147.2v-4.26h1.13v4.26H142.03z"/>
		<path class="st2" d="M144.05,145c0-0.36,0.09-0.73,0.27-1.09c0.19-0.34,0.46-0.61,0.78-0.79c0.34-0.18,0.72-0.28,1.13-0.28
			c0.65,0,1.18,0.2,1.59,0.63c0.41,0.42,0.62,0.95,0.62,1.59c0,0.63-0.2,1.17-0.62,1.6c-0.42,0.42-0.95,0.63-1.57,0.63
			c-0.39,0-0.76-0.08-1.11-0.26c-0.36-0.16-0.63-0.42-0.82-0.76C144.14,145.91,144.05,145.49,144.05,145z M145.21,145.06
			c0,0.43,0.09,0.75,0.29,0.97c0.2,0.22,0.44,0.34,0.75,0.34c0.29,0,0.53-0.12,0.74-0.34c0.2-0.22,0.29-0.54,0.29-0.97
			c0-0.42-0.09-0.74-0.29-0.97c-0.2-0.22-0.45-0.34-0.74-0.34c-0.3,0-0.54,0.12-0.75,0.34C145.3,144.32,145.21,144.64,145.21,145.06
			z"/>
		<path class="st2" d="M153.19,147.2h-1.12v-2.18c0-0.46-0.03-0.75-0.08-0.89c-0.04-0.14-0.12-0.24-0.23-0.32
			c-0.11-0.06-0.23-0.1-0.39-0.1c-0.19,0-0.36,0.04-0.53,0.16c-0.15,0.1-0.26,0.24-0.31,0.43c-0.06,0.16-0.09,0.48-0.09,0.97v1.94
			h-1.12v-4.26h1.03v0.63c0.37-0.48,0.85-0.73,1.4-0.73c0.25,0,0.47,0.04,0.68,0.14c0.2,0.08,0.36,0.2,0.47,0.34
			c0.11,0.14,0.18,0.28,0.22,0.46c0.04,0.18,0.06,0.42,0.06,0.77V147.2z"/>
	</g>
	<g>
		<path class="st3" d="M48.95,122.32c0,0.71-0.22,1.35-0.69,1.9c-0.46,0.56-1.05,0.85-1.76,0.85c-0.64,0-1.19-0.24-1.64-0.71
			c-0.44-0.46-0.67-1.09-0.67-1.88c0-0.79,0.23-1.41,0.71-1.92c0.47-0.48,1.03-0.73,1.71-0.73c0.67,0,1.24,0.22,1.67,0.68
			C48.73,120.99,48.95,121.6,48.95,122.32z M47.57,122.71c0-0.63-0.09-1.21-0.27-1.74c-0.19-0.5-0.45-0.76-0.8-0.76
			c-0.3,0-0.54,0.18-0.7,0.55c-0.16,0.36-0.24,0.86-0.24,1.51c0,0.7,0.09,1.29,0.28,1.75c0.18,0.44,0.43,0.69,0.76,0.69
			c0.32,0,0.57-0.2,0.73-0.54C47.49,123.8,47.57,123.31,47.57,122.71z"/>
		<path class="st3" d="M51.28,119.94c0.01,0.4,0.02,0.95,0.02,1.63c0,1.05,0.01,1.74,0.03,2.02c0.02,0.3,0.08,0.52,0.2,0.66
			c0.11,0.14,0.24,0.22,0.39,0.22c0.17,0,0.35-0.08,0.54-0.22c0.17-0.16,0.3-0.36,0.39-0.6c0.09-0.24,0.13-0.65,0.13-1.19l0.01-1.29
			c0-0.35-0.02-0.59-0.05-0.69c-0.03-0.1-0.14-0.16-0.32-0.19c-0.2,0-0.3-0.06-0.3-0.18c0-0.06,0.02-0.1,0.07-0.12
			c0.05-0.02,0.17-0.02,0.38-0.02c0.46,0,0.9-0.02,1.3-0.04c0.02,0.14,0.02,0.99,0.02,2.5c0,1.21,0.01,1.88,0.03,1.97
			c0.02,0.12,0.13,0.19,0.33,0.21c0.11,0.02,0.17,0.06,0.17,0.16c0,0.12-0.06,0.16-0.2,0.16c-0.03,0-0.06,0-0.12,0
			c-0.1,0-0.2,0-0.33,0c-0.44,0-0.7,0-0.75,0c-0.05,0-0.09,0-0.13,0c-0.06,0-0.1,0-0.12-0.04c-0.01-0.01-0.02-0.1-0.02-0.22
			c0-0.2,0.01-0.41,0.04-0.61c-0.23,0.32-0.47,0.56-0.73,0.73c-0.25,0.16-0.52,0.24-0.81,0.24c-0.86,0-1.28-0.55-1.28-1.66v-1.82
			c0-0.62-0.02-0.99-0.06-1.09c-0.04-0.1-0.14-0.19-0.3-0.2c-0.15-0.02-0.22-0.08-0.22-0.16c0-0.1,0.07-0.14,0.19-0.14
			C50.69,119.98,51.18,119.96,51.28,119.94z"/>
		<path class="st3" d="M57,120.97c0.22-0.38,0.47-0.67,0.74-0.85c0.27-0.18,0.55-0.28,0.86-0.28c0.25,0,0.48,0.08,0.69,0.22
			c0.21,0.16,0.35,0.34,0.43,0.55c0.08,0.22,0.11,0.5,0.11,0.89l-0.04,2.34c0,0.32,0.02,0.52,0.07,0.64c0.05,0.1,0.16,0.16,0.31,0.2
			c0.14,0.02,0.21,0.08,0.21,0.18c0,0.1-0.07,0.14-0.2,0.14c-0.11,0-0.35-0.02-0.73-0.04c-0.13,0-0.24-0.02-0.31-0.02
			c-0.08,0-0.31,0.04-0.68,0.06h-0.24c-0.14,0-0.2-0.04-0.2-0.14c0-0.08,0.06-0.14,0.18-0.18c0.12-0.02,0.2-0.06,0.27-0.12
			c0.07-0.08,0.11-0.38,0.13-0.93c0.02-0.55,0.04-1.09,0.04-1.64c0-0.6-0.04-1-0.13-1.23c-0.08-0.23-0.23-0.34-0.46-0.34
			c-0.29,0-0.55,0.24-0.8,0.72c-0.24,0.49-0.36,1.23-0.36,2.24c0,0.38,0.02,0.67,0.05,0.85c0.03,0.18,0.07,0.28,0.12,0.32
			c0.05,0.06,0.15,0.08,0.32,0.12c0.09,0.02,0.14,0.08,0.14,0.16c0,0.12-0.07,0.16-0.21,0.16c-0.06,0-0.13,0-0.22,0
			c-0.32-0.04-0.5-0.06-0.52-0.06c-0.48,0-0.89,0.04-1.19,0.06c-0.05,0.02-0.09,0.02-0.12,0.02c-0.13,0-0.19-0.06-0.19-0.16
			c0-0.1,0.06-0.16,0.17-0.18c0.17-0.02,0.28-0.08,0.34-0.16c0.06-0.08,0.11-0.36,0.14-0.81c0.02-0.45,0.04-0.99,0.04-1.61
			c0-0.79-0.03-1.27-0.08-1.47c-0.05-0.18-0.17-0.33-0.36-0.4c-0.13-0.06-0.2-0.12-0.2-0.18c0-0.1,0.1-0.14,0.29-0.14
			c0.56,0,1.01-0.02,1.35-0.08C56.9,120.16,56.98,120.55,57,120.97z"/>
		<path class="st3" d="M64.15,120.39c0-1.13,0-1.87-0.01-2.26c-0.01-0.36-0.04-0.59-0.09-0.67c-0.04-0.06-0.16-0.1-0.35-0.14
			c-0.13-0.02-0.19-0.08-0.19-0.16c0-0.06,0.02-0.12,0.06-0.14c0.05,0,0.2-0.02,0.44-0.02h1.33l-0.01,4.15l-0.02,2.56
			c0,0.4,0.03,0.67,0.09,0.76c0.05,0.1,0.18,0.16,0.39,0.2c0.13,0.02,0.19,0.06,0.19,0.16c0,0.1-0.07,0.14-0.2,0.14h-1.62v-0.79
			c-0.14,0.3-0.32,0.52-0.53,0.67c-0.21,0.14-0.45,0.22-0.73,0.22c-0.51,0-0.97-0.22-1.35-0.69c-0.38-0.46-0.59-1.07-0.59-1.8
			c0-0.81,0.22-1.45,0.66-1.98c0.44-0.51,0.94-0.77,1.48-0.77c0.2,0,0.39,0.04,0.57,0.12C63.84,120.06,64,120.21,64.15,120.39z
			 M62.32,122.45c0,0.73,0.08,1.27,0.26,1.61c0.17,0.34,0.38,0.52,0.64,0.52c0.25,0,0.47-0.16,0.65-0.5
			c0.18-0.32,0.27-0.91,0.27-1.78c0-0.68-0.07-1.21-0.23-1.57c-0.14-0.34-0.38-0.52-0.68-0.52c-0.3,0-0.53,0.18-0.68,0.56
			C62.39,121.13,62.32,121.7,62.32,122.45z"/>
		<path class="st3" d="M68.97,124.4c-0.21,0.24-0.41,0.41-0.63,0.53c-0.21,0.1-0.42,0.16-0.65,0.16c-0.33,0-0.61-0.12-0.79-0.36
			c-0.18-0.24-0.28-0.52-0.28-0.87c0-0.26,0.06-0.5,0.17-0.71c0.11-0.22,0.25-0.38,0.41-0.48c0.17-0.12,0.45-0.26,0.83-0.43
			c0.31-0.12,0.53-0.24,0.65-0.3c0.1-0.08,0.19-0.2,0.27-0.34c0.07-0.14,0.11-0.32,0.11-0.57c0-0.26-0.06-0.46-0.17-0.6
			c-0.11-0.16-0.26-0.24-0.45-0.24c-0.17,0-0.3,0.06-0.35,0.16c-0.08,0.08-0.12,0.24-0.16,0.47c-0.08,0.44-0.28,0.66-0.62,0.66
			c-0.14,0-0.26-0.04-0.35-0.14c-0.1-0.08-0.15-0.22-0.15-0.4c0-0.36,0.17-0.65,0.53-0.83c0.34-0.18,0.77-0.28,1.25-0.28
			c0.41,0,0.76,0.08,1.02,0.22c0.26,0.14,0.43,0.32,0.5,0.52c0.08,0.18,0.11,0.49,0.11,0.91l-0.01,1.37c0,0.75,0.02,1.21,0.07,1.41
			c0.04,0.2,0.13,0.3,0.26,0.3c0.02,0,0.05,0,0.08,0c0.07,0,0.11-0.02,0.14-0.02c0.14,0,0.2,0.04,0.2,0.14
			c0,0.06-0.03,0.1-0.08,0.14c-0.06,0.04-0.23,0.1-0.53,0.16c-0.28,0.06-0.54,0.1-0.77,0.1c-0.24,0-0.39-0.06-0.48-0.16
			C69.04,124.83,68.99,124.65,68.97,124.4z M69.04,122.06c-0.08,0.12-0.28,0.26-0.58,0.44c-0.27,0.18-0.46,0.32-0.55,0.46
			c-0.09,0.14-0.14,0.32-0.14,0.59c0,0.28,0.05,0.49,0.15,0.63c0.1,0.14,0.22,0.22,0.36,0.22c0.19,0,0.37-0.12,0.54-0.32
			c0.17-0.2,0.26-0.56,0.26-1.09C69.07,122.81,69.06,122.51,69.04,122.06z"/>
		<path class="st3" d="M73.29,119.92c0.2-0.02,0.51-0.02,0.94-0.02c0.19,0,0.35,0.02,0.47,0.06c-0.05,0.28-0.09,0.44-0.13,0.46
			c-0.04,0.02-0.46,0.06-1.28,0.12l-0.05,2.56c0,0.36,0.01,0.65,0.04,0.81c0.03,0.18,0.1,0.32,0.22,0.44
			c0.11,0.12,0.26,0.16,0.44,0.16c0.15,0,0.37-0.08,0.65-0.28c0.05-0.02,0.08-0.04,0.11-0.04c0.07,0,0.09,0.04,0.09,0.12
			c0,0.12-0.13,0.26-0.4,0.46c-0.27,0.2-0.59,0.28-0.96,0.28c-0.42,0-0.77-0.12-1.01-0.36c-0.25-0.24-0.37-0.77-0.37-1.55
			c0-0.87,0.01-1.73,0.04-2.6c-0.33,0-0.56-0.02-0.71-0.04c-0.13-0.02-0.2-0.08-0.2-0.16c0-0.08,0.07-0.14,0.23-0.18
			c0.32-0.1,0.59-0.24,0.84-0.44c0.24-0.22,0.45-0.57,0.63-1.03c0.06-0.2,0.11-0.3,0.14-0.34c0.02-0.04,0.06-0.06,0.11-0.06
			c0.09,0,0.14,0.08,0.14,0.26V119.92z"/>
		<path class="st3" d="M77.13,119.82c0.02,0.54,0.02,1.51,0.02,2.93L77.14,124c0,0.24,0.03,0.42,0.11,0.51
			c0.07,0.08,0.18,0.14,0.35,0.16c0.18,0.04,0.27,0.1,0.27,0.2c0,0.1-0.06,0.14-0.21,0.14c-0.07,0-0.19,0-0.37-0.02
			c-0.36-0.02-0.73-0.04-1.09-0.04c-0.18,0-0.36,0.02-0.55,0.04c-0.11,0.02-0.19,0.02-0.23,0.02c-0.15,0-0.22-0.04-0.22-0.14
			c0-0.1,0.1-0.16,0.29-0.18c0.26-0.04,0.42-0.14,0.43-0.3c0.03-0.18,0.05-0.53,0.05-1.07c0-0.68-0.01-1.32-0.03-1.88
			c-0.02-0.57-0.05-0.91-0.1-0.99c-0.05-0.08-0.19-0.15-0.39-0.16c-0.16-0.02-0.25-0.08-0.25-0.16c0-0.1,0.09-0.16,0.25-0.16
			l0.11-0.02L77.13,119.82z M77.06,117.85c0,0.22-0.07,0.42-0.21,0.6c-0.14,0.16-0.31,0.24-0.51,0.24c-0.2,0-0.37-0.08-0.51-0.24
			c-0.14-0.18-0.21-0.39-0.21-0.6c0-0.22,0.07-0.43,0.21-0.59c0.14-0.16,0.31-0.26,0.51-0.26c0.19,0,0.36,0.1,0.51,0.26
			C76.99,117.42,77.06,117.62,77.06,117.85z"/>
		<path class="st3" d="M83.26,122.32c0,0.71-0.23,1.35-0.69,1.9c-0.45,0.56-1.04,0.85-1.75,0.85c-0.66,0-1.2-0.24-1.64-0.71
			c-0.44-0.46-0.66-1.09-0.66-1.88c0-0.79,0.23-1.41,0.7-1.92c0.47-0.48,1.04-0.73,1.7-0.73c0.69,0,1.24,0.22,1.69,0.68
			C83.04,120.99,83.26,121.6,83.26,122.32z M81.87,122.71c0-0.63-0.09-1.21-0.27-1.74c-0.18-0.5-0.44-0.76-0.79-0.76
			c-0.3,0-0.53,0.18-0.7,0.55c-0.17,0.36-0.25,0.86-0.25,1.51c0,0.7,0.09,1.29,0.28,1.75c0.18,0.44,0.44,0.69,0.77,0.69
			c0.31,0,0.55-0.2,0.72-0.54C81.79,123.8,81.87,123.31,81.87,122.71z"/>
		<path class="st3" d="M85.73,120.97c0.23-0.38,0.47-0.67,0.75-0.85c0.26-0.18,0.54-0.28,0.85-0.28c0.25,0,0.49,0.08,0.7,0.22
			c0.21,0.16,0.35,0.34,0.43,0.55c0.08,0.22,0.12,0.5,0.12,0.89l-0.04,2.34c0,0.32,0.02,0.52,0.07,0.64c0.05,0.1,0.15,0.16,0.31,0.2
			c0.13,0.02,0.2,0.08,0.2,0.18c0,0.1-0.06,0.14-0.19,0.14c-0.11,0-0.35-0.02-0.74-0.04c-0.12,0-0.23-0.02-0.31-0.02
			c-0.08,0-0.3,0.04-0.66,0.06h-0.25c-0.13,0-0.2-0.04-0.2-0.14c0-0.08,0.06-0.14,0.19-0.18c0.11-0.02,0.2-0.06,0.27-0.12
			c0.06-0.08,0.11-0.38,0.13-0.93c0.02-0.55,0.03-1.09,0.03-1.64c0-0.6-0.04-1-0.12-1.23c-0.08-0.23-0.24-0.34-0.46-0.34
			c-0.29,0-0.56,0.24-0.8,0.72c-0.24,0.49-0.37,1.23-0.37,2.24c0,0.38,0.02,0.67,0.05,0.85c0.04,0.18,0.08,0.28,0.13,0.32
			c0.05,0.06,0.15,0.08,0.31,0.12c0.09,0.02,0.13,0.08,0.13,0.16c0,0.12-0.06,0.16-0.2,0.16c-0.07,0-0.14,0-0.22,0
			c-0.32-0.04-0.49-0.06-0.52-0.06c-0.47,0-0.88,0.04-1.19,0.06c-0.04,0.02-0.08,0.02-0.12,0.02c-0.12,0-0.18-0.06-0.18-0.16
			c0-0.1,0.06-0.16,0.16-0.18c0.18-0.02,0.29-0.08,0.35-0.16c0.06-0.08,0.1-0.36,0.13-0.81c0.03-0.45,0.04-0.99,0.04-1.61
			c0-0.79-0.02-1.27-0.07-1.47c-0.05-0.18-0.18-0.33-0.36-0.4c-0.14-0.06-0.21-0.12-0.21-0.18c0-0.1,0.1-0.14,0.3-0.14
			c0.55,0,1.01-0.02,1.35-0.08C85.63,120.16,85.7,120.55,85.73,120.97z"/>
		<g>
			<path class="st3" d="M38.18,125.07l0.01-0.46c0.07-0.02,0.2-0.04,0.37-0.08c0.17-0.04,0.34-0.11,0.52-0.14l0.09-0.08
				c0.04-0.16,0.05-0.34,0.05-0.5v-0.04l-0.02-1.43l0.01-0.61l-0.02-0.89l0.01-1.07l-0.06-2.08c-0.05-0.06-0.22-0.12-0.49-0.16
				c-0.07-0.02-0.17-0.06-0.3-0.1l-0.12-0.04v-0.44l0.67,0.04c0.41,0.04,1.01,0.06,1.81,0.06c0.39,0,0.81,0,1.24-0.02l0.1-0.02
				l0.25,0.02l0.1-0.02h0.21l0.92-0.04c0.04,0,0.09,0,0.16,0c0.06-0.02,0.12-0.02,0.18-0.02c0.02,0.12,0.04,0.24,0.04,0.36
				l0.08,1.17c0,0.14-0.01,0.22-0.03,0.3c-0.12,0.02-0.21,0.02-0.27,0.02c-0.07,0-0.12-0.02-0.16-0.06
				c-0.02-0.02-0.06-0.12-0.12-0.28c-0.14-0.4-0.26-0.66-0.36-0.72c-0.1-0.08-0.38-0.12-0.84-0.12l-0.71,0.02
				c-0.3,0-0.53,0.02-0.71,0.06c-0.03,0.02-0.09,0.04-0.16,0.06c-0.04,0.1-0.06,0.22-0.06,0.38l0.01,0.73l-0.01,0.85
				c0,0.44,0.01,0.71,0.03,0.81c0.03,0.02,0.06,0.04,0.08,0.04h0.36h0.61c0.14,0,0.35-0.02,0.64-0.06c0.19-0.02,0.31-0.06,0.35-0.1
				c0.08-0.06,0.14-0.14,0.17-0.24c0.04-0.1,0.07-0.34,0.08-0.75c0.02,0,0.07,0,0.14,0c0.05-0.02,0.08-0.02,0.1-0.02
				c0.03,0,0.11,0.02,0.22,0.02l-0.03,1.01c0,0.2-0.01,0.38-0.02,0.55l0.01,0.14c0.01,0.04,0.01,0.34,0.01,0.91
				c0,0.04,0,0.11-0.01,0.18c-0.06,0.02-0.11,0.04-0.15,0.04c-0.03,0-0.09-0.02-0.2-0.04c-0.03-0.08-0.06-0.2-0.1-0.34
				c-0.08-0.32-0.16-0.53-0.25-0.59c-0.17-0.08-0.68-0.14-1.55-0.14c-0.13,0-0.27,0.02-0.44,0.04c-0.02,0.18-0.03,0.38-0.03,0.6
				l0.02,1.88c0.01,0.34,0.04,0.54,0.09,0.62c0.04,0.06,0.17,0.1,0.38,0.16h0.11c0.15,0.02,0.28,0.04,0.4,0.08l0.13,0.04
				c0.02,0.1,0.02,0.2,0.02,0.24c0,0.08,0,0.16-0.01,0.24h-0.1h-0.16l-0.73-0.04c-0.08,0-0.46,0-1.14,0c-0.19,0-0.36,0-0.54,0.02
				c-0.27,0.04-0.43,0.06-0.44,0.06C38.42,125.07,38.27,125.07,38.18,125.07z"/>
		</g>
	</g>
</g>
</svg>
